<svg width="1000" height="480" viewBox="0 0 1920 480" fill="none" xmlns="http://www.w3.org/2000/svg">
<path d="M836.537 12.9828C834.128 33.0592 827.034 57.5525 823.554 57.5525C822.617 57.5525 816.193 54.8757 809.367 51.6634C798.392 46.5774 781.661 41.4914 775.504 41.4914C773.898 41.4914 774.701 43.9006 778.583 51.7974C784.472 63.7094 789.825 82.3135 789.156 88.7379L788.755 93.0209L776.709 93.9579C741.642 96.6347 725.179 98.2409 725.179 98.9101C725.179 99.4455 731.068 105.736 738.296 113.097C751.814 126.749 761.718 141.338 761.049 146.424C760.781 148.298 753.956 153.919 739.902 163.69C728.525 171.587 719.022 178.68 718.755 179.35C718.487 180.019 719.959 180.956 722.101 181.491C736.422 184.57 742.579 186.577 747.665 189.522C754.625 193.671 761.852 199.828 765.466 204.914L768.143 208.661L753.152 223.518C740.571 236.099 738.43 238.643 740.036 240.115C741.107 241.052 749.137 244.13 757.971 246.807C766.804 249.484 774.567 252.295 775.237 252.964C775.906 253.633 774.835 260.459 772.292 269.828C770.017 278.528 768.544 286.157 768.946 286.826C769.615 288.031 791.699 286.96 795.313 285.622C798.659 284.417 799.998 287.628 800.934 298.203C801.47 304.36 802.273 309.58 802.808 309.846C803.879 310.517 818.87 304.091 818.87 303.02C818.87 302.62 817.13 299.808 814.988 296.731C808.831 287.763 804.682 278.528 800.801 265.679C798.927 258.987 796.116 250.019 794.778 245.602C793.305 241.186 791.833 235.163 791.565 232.218C789.692 218.031 789.424 212.811 790.762 212.811C791.432 212.811 792.101 215.086 792.101 217.763C792.235 223.786 795.179 239.847 797.187 245.602C797.99 247.744 800.533 255.641 802.808 263.002C808.296 280.268 816.193 295.794 823.019 302.62C826.231 305.831 833.191 310.383 839.883 313.46L851.126 318.68L850.725 323.632L850.323 328.586L820.476 338.489L790.629 348.527L786.747 361.242C784.606 368.336 778.583 389.35 773.229 408.088C767.875 426.692 762.789 442.753 761.986 443.556C761.183 444.359 758.774 451.587 756.766 459.751C754.759 467.782 752.885 475.545 752.483 476.75C751.814 479.025 757.168 479.159 852.197 479.159C947.359 479.159 952.713 479.025 952.713 476.75C952.713 475.545 946.422 468.585 938.659 461.358C930.896 454.13 924.605 447.438 924.605 446.367C924.605 445.43 929.424 440.478 935.179 435.392C949.902 422.811 950.036 422.008 944.013 406.615C933.841 380.784 912.024 340.898 903.993 333.403C901.45 330.994 900.513 328.718 900.513 325.106C900.513 319.617 901.718 318.28 908.544 316.003C915.504 313.728 922.33 308.509 927.015 301.951C930.762 296.731 932.368 295.794 942.674 292.582C948.965 290.574 954.051 288.431 954.051 287.897C954.051 287.228 951.642 283.748 948.697 280.268C942.942 273.308 941.871 268.356 945.753 267.151C946.957 266.75 951.642 266.08 956.059 265.545C960.475 265.144 964.491 264.474 965.026 264.073C966.231 263.537 959.405 244.532 957.799 243.862C957.263 243.595 956.728 242.39 956.728 241.052C956.728 239.446 958.602 238.241 963.42 237.036C971.718 234.895 991.527 225.392 991.527 223.652C991.527 222.849 988.984 220.975 985.906 219.369C968.774 210.669 954.854 200.631 957.665 199.025C958.2 198.757 963.152 197.151 968.506 195.545C973.86 193.939 982.56 190.593 987.913 188.183C997.149 184.034 1016.15 172.791 1015.35 171.988C1014.82 171.587 978.544 156.061 975.064 154.856C973.458 154.187 973.057 153.384 973.726 152.179C974.261 151.109 983.095 142.543 993.267 133.174C1003.31 123.671 1011.6 115.507 1011.6 114.971C1011.6 113.901 1003.3 112.428 978.812 108.948C969.978 107.61 962.215 106.271 961.68 105.736C961.011 105.201 967.168 93.4225 975.332 79.6367C988.583 57.0172 991.126 52.1988 989.787 52.1988C989.52 52.1988 978.544 56.0803 965.428 60.8986C946.288 67.8585 941.068 69.197 939.73 67.8585C936.785 64.914 933.974 42.8298 933.974 23.021V3.88146L923.133 9.63671C910.418 16.4627 893.42 29.7131 885.523 38.9484C882.578 42.5621 879.5 45.5067 878.966 45.5067C878.295 45.5067 873.209 39.3499 867.454 31.7208C857.551 18.6042 840.82 0 838.946 0C838.41 0 837.34 5.88909 836.537 12.9828ZM840.284 348.393C835.332 352.275 810.036 419.063 812.043 422.543C812.713 423.747 818.468 429.235 824.892 434.857C831.451 440.478 836.938 445.698 837.206 446.501C837.474 447.304 835.868 450.249 833.592 453.059C831.451 455.87 829.577 457.342 829.577 456.405C829.577 455.602 830.781 453.193 832.388 451.319L835.198 447.706L822.349 435.66C813.382 427.227 809.5 422.677 809.5 420.535C809.5 416.252 824.759 375.296 834.128 354.283C836.403 349.196 838.277 346.653 839.883 346.653C842.024 346.787 842.024 346.921 840.284 348.393Z" fill="#F5F5F5"/>
<path d="M1064.34 188.05C1026.73 194.876 1005.98 209.732 979.083 249.484C973.194 258.05 972.792 259.121 972.792 267.419C972.792 273.843 971.454 280.134 967.974 290.974C962.085 309.311 962.352 313.594 970.783 327.915C974.129 333.537 976.806 338.892 976.806 339.56C976.806 340.363 975.066 342.906 972.792 345.315C965.697 352.944 965.832 364.722 973.194 372.619C977.477 377.036 987.514 381.185 990.191 379.445C990.86 379.044 989.923 375.965 988.183 372.485C986.309 369.139 984.837 365.392 984.971 364.187C984.971 362.849 985.64 363.25 986.443 365.392C988.718 370.344 999.292 386.673 1004.51 393.097C1014.82 405.946 1037.04 418.929 1057.78 424.417C1064.07 426.023 1075.18 427.495 1084.55 427.897C1093.38 428.298 1099.41 429.101 1097.93 429.637C1089.9 432.447 1052.96 427.227 1035.97 420.803L1027.13 417.457L1024.86 420.535C1016.42 431.644 1006.79 456.941 1004.38 474.073L1003.71 479.159H1086.69C1165.12 479.159 1169.67 479.025 1169.01 476.75C1168.6 475.545 1166.46 467.514 1164.32 458.948C1159.64 440.478 1155.89 431.243 1149.87 423.346C1147.46 420.134 1145.45 416.788 1145.45 415.851C1145.58 415.048 1148.93 411.835 1153.08 408.891C1160.57 403.537 1170.88 392.696 1176.5 384.13C1178.37 381.319 1181.32 379.044 1184 378.241C1186.27 377.571 1190.55 374.761 1193.5 372.084C1202.73 363.25 1203.67 351.204 1195.51 344.11C1192.7 341.701 1192.29 340.497 1193.1 336.214C1193.63 333.537 1194.44 330.994 1194.97 330.592C1195.51 330.191 1196.71 326.309 1197.65 321.892C1198.99 315.469 1198.99 310.517 1197.65 296.731C1196.71 287.362 1195.37 279.733 1194.7 279.733C1194.03 279.733 1193.63 275.985 1193.77 271.3C1194.03 263.939 1193.37 261.664 1188.55 252.295C1182.12 239.579 1172.62 225.66 1162.98 215.22C1157.09 208.795 1153.21 206.252 1138.09 198.757C1127.38 193.537 1116.4 189.12 1111.05 188.05C1099.94 185.64 1077.19 185.64 1064.34 188.05Z" fill="#F5F5F5"/>
<path d="M907.208 334.072C907.208 334.474 909.751 338.221 912.963 342.37C916.174 346.52 920.591 353.078 923 356.692C929.291 366.73 943.88 398.049 948.163 410.497C952.847 423.747 952.446 424.684 938.392 436.596C933.038 441.147 928.623 445.966 928.623 447.036C928.623 448.241 934.644 454.665 942.006 461.625C950.037 468.987 955.39 475.01 955.39 476.616C955.39 479.025 956.461 479.159 974.128 479.159C988.182 479.159 992.867 478.757 992.867 477.419C992.867 471.797 960.075 353.881 956.996 348.26C956.461 347.189 947.895 344.378 937.991 341.835C928.086 339.426 917.78 336.481 914.969 335.277C909.483 333.135 907.208 332.734 907.208 334.072Z" fill="#F5F5F5"/>
</svg>
