<svg width="40" height="41" viewBox="0 0 40 41" fill="none" xmlns="http://www.w3.org/2000/svg">
<path d="M17.6682 0.628414C13.1219 1.22541 9.16872 3.1159 6.00615 6.2157C3.27691 8.88688 1.44474 12.1091 0.52486 15.8595C0.129538 17.4745 -0.0073043 18.7144 0.000298047 20.5283C0.0079004 23.8194 0.6541 26.529 2.13656 29.5139C3.61902 32.4836 5.96054 35.1394 8.81904 37.0682C12.6354 39.6399 17.4781 40.8798 21.8494 40.3977C26.867 39.8389 30.8734 37.9484 34.2489 34.5272C38.8103 29.8966 40.7261 23.9114 39.753 17.2372C39.1904 13.3185 36.9477 9.00168 34.036 6.20805C31.284 3.57514 27.977 1.78414 24.3582 0.972836C22.2828 0.513607 19.6144 0.368184 17.6682 0.628414ZM22.4653 3.15418C27.9466 3.95782 32.7892 7.50154 35.298 12.5454C36.0582 14.0762 36.6056 15.8059 36.8793 17.505C37.0694 18.6838 37.0694 21.8448 36.8793 22.9393C36.3699 25.8324 35.336 28.2817 33.6027 30.6314C33.3138 31.0294 32.5612 31.8713 31.9378 32.4989L30.805 33.6317L30.8506 34.221L30.8962 34.8027L30.6758 33.9608C30.4173 32.9582 30.1892 32.3994 29.8547 31.9555C29.7179 31.7718 29.6038 31.5805 29.6038 31.5269C29.6114 31.481 29.8015 31.2973 30.0372 31.1289C30.4629 30.8227 31.0483 30.2027 31.3676 29.7129C31.4816 29.5522 31.6413 29.4221 31.801 29.3762C32.181 29.269 32.6144 28.8174 32.7132 28.427C32.8197 28.052 32.7816 27.876 32.5231 27.4857L32.3331 27.2101L32.5003 26.4524C32.6676 25.7023 32.6676 25.687 32.5383 24.5083C32.4699 23.8578 32.4167 23.2302 32.4167 23.123C32.4167 22.8551 31.8314 21.6764 31.3676 21.0258C30.5922 19.9237 30.3033 19.6634 29.1781 19.1124C27.8705 18.4618 27.3916 18.3546 26.0687 18.4082C24.9132 18.4542 23.9401 18.6761 23.0506 19.1047C22.1535 19.5334 21.1348 20.5513 20.1542 22.0132C19.8196 22.503 19.7968 22.5642 19.7968 23.0388C19.7968 23.4062 19.7208 23.7659 19.5231 24.3858C19.1886 25.4344 19.2038 25.6794 19.6828 26.4983C19.8729 26.8198 20.0249 27.1259 20.0249 27.1642C20.0249 27.2101 19.9261 27.3555 19.7968 27.4933C19.3939 27.9296 19.4015 28.6031 19.8196 29.0547C20.0553 29.3073 20.633 29.5446 20.7775 29.445C20.8155 29.4221 20.7851 29.2307 20.7015 29.0241C20.4734 28.4194 20.5342 28.3965 20.8155 28.9858C21.3705 30.1645 22.1231 30.9222 23.3319 31.5192C24.2442 31.9631 25.0272 32.1622 26.1448 32.2157C26.6466 32.2386 26.9886 32.2846 26.905 32.3152C26.4489 32.4759 24.3506 32.1774 23.3851 31.8101L22.8834 31.6187L22.7542 31.7947C22.4729 32.1622 21.9178 33.3791 21.781 33.9225C21.705 34.2363 21.5986 34.8716 21.5454 35.3308C21.3933 36.7621 21.3325 36.8922 21.1729 36.0502C20.9068 34.6573 19.1202 28.0597 18.8998 27.6617C18.8694 27.6005 18.3904 27.4398 17.8354 27.302C17.2805 27.1566 16.6722 26.9882 16.4822 26.9116C16.2998 26.8427 16.1249 26.8045 16.1021 26.8274C16.0793 26.8504 16.2085 27.0723 16.391 27.3173C16.5734 27.5622 16.8319 27.9372 16.9687 28.1439C17.3261 28.7179 18.1547 30.5089 18.398 31.2207C18.6641 31.9785 18.6413 32.032 17.843 32.7132C17.539 32.9734 17.2881 33.2414 17.2881 33.3102C17.2881 33.3714 17.6378 33.7542 18.0635 34.1522C18.8009 34.8486 18.8314 34.8946 18.7705 35.1089L18.7021 35.3385L18.6717 35.1012C18.6565 34.9175 18.474 34.7109 17.8582 34.1215C17.4173 33.7158 17.06 33.3332 17.06 33.2719C17.06 33.2184 17.3337 32.9352 17.6606 32.6443C18.4968 31.9249 18.5044 31.879 18.1623 30.9987C17.5846 29.5216 16.3454 27.2407 15.8892 26.8121C15.7448 26.6743 15.6915 26.5442 15.6915 26.3376C15.6915 26.0238 15.76 25.9472 16.1477 25.8171C16.543 25.687 16.9307 25.3885 17.1968 25.0134C17.4097 24.715 17.5009 24.6614 18.0863 24.4777C18.4436 24.3629 18.7325 24.2404 18.7325 24.2098C18.7325 24.1715 18.5957 23.9726 18.4284 23.7735C18.1015 23.3755 18.0406 23.0924 18.2611 23.0235C18.3296 23.0006 18.5957 22.9622 18.8466 22.9316C19.0974 22.9086 19.3254 22.8704 19.3559 22.8474C19.3863 22.8322 19.3102 22.5413 19.1886 22.2046C19.0594 21.8678 18.9606 21.5463 18.9606 21.5004C18.9606 21.4468 19.1582 21.3473 19.4015 21.2631C19.9413 21.087 20.8611 20.6278 20.8611 20.536C20.8611 20.4978 20.5798 20.314 20.2454 20.1303C19.5839 19.7782 18.915 19.2425 19.0138 19.1506C19.0442 19.12 19.3178 19.0129 19.6067 18.921C20.3366 18.6761 21.112 18.3164 21.7202 17.926C22.0015 17.75 22.2296 17.5893 22.2144 17.5816C22.1839 17.5586 20.1238 16.6708 19.9261 16.6019C19.8348 16.5637 19.812 16.5178 19.85 16.4489C19.8805 16.3876 20.3822 15.8978 20.96 15.362C21.5302 14.8186 22.0015 14.3517 22.0015 14.3211C22.0015 14.2598 21.5302 14.1757 20.139 13.9766C19.6372 13.9002 19.1962 13.8236 19.1658 13.793C19.1278 13.7624 19.4775 13.0888 19.9413 12.3005C20.6939 11.007 20.8383 10.7314 20.7623 10.7314C20.7471 10.7314 20.1237 10.9534 19.3787 11.229C18.2915 11.627 17.995 11.7035 17.919 11.627C17.7518 11.4586 17.5922 10.1957 17.5922 9.06288V7.96842L16.9763 8.29754C16.2542 8.68792 15.2886 9.4456 14.8401 9.97376C14.6728 10.1804 14.498 10.3488 14.4676 10.3488C14.4295 10.3488 14.1406 9.99672 13.8138 9.5604C13.2512 8.81032 12.3009 7.74646 12.1945 7.74646C12.1641 7.74646 12.1032 8.08323 12.0576 8.48888C11.9208 9.63696 11.5178 11.0376 11.3202 11.0376C11.267 11.0376 10.9021 10.8846 10.5143 10.7008C9.89096 10.41 8.94064 10.1191 8.59096 10.1191C8.49976 10.1191 8.54536 10.2569 8.76584 10.7085C9.10032 11.3897 9.4044 12.4536 9.3664 12.821L9.3436 13.0658L8.65936 13.1194C6.66756 13.2726 5.73247 13.3644 5.73247 13.4026C5.73247 13.4333 6.06698 13.793 6.4775 14.2139C7.24534 14.9946 7.80791 15.8289 7.7699 16.1198C7.7547 16.2269 7.36698 16.5483 6.56873 17.1071C5.92253 17.5586 5.38276 17.9643 5.36756 18.0026C5.35235 18.0409 5.43598 18.0944 5.55762 18.125C6.37106 18.301 6.72078 18.4159 7.00966 18.5842C7.40498 18.8215 7.81551 19.1736 8.0208 19.4645L8.1728 19.6788L7.32136 20.5283C6.60674 21.2478 6.4851 21.3932 6.57633 21.4774C6.63715 21.531 7.09329 21.707 7.59505 21.8601C8.0968 22.0132 8.53776 22.1739 8.57576 22.2122C8.61376 22.2505 8.55296 22.6408 8.40848 23.1766C8.27928 23.6741 8.1956 24.1103 8.2184 24.1486C8.25648 24.2174 9.5108 24.1562 9.71608 24.0797C9.90616 24.0108 9.98216 24.1945 10.0354 24.7992C10.0658 25.1513 10.1114 25.4498 10.1418 25.465C10.2026 25.5033 11.0541 25.1359 11.0541 25.0747C11.0541 25.0518 10.9553 24.891 10.8337 24.715C10.3243 23.9649 9.97456 23.0235 9.70088 21.6382C9.51848 20.7579 9.4348 19.916 9.52608 19.916C9.55648 19.916 9.60968 20.161 9.64008 20.4594C9.79216 22.1662 10.5752 24.3323 11.2898 25.0518C11.4722 25.2354 11.8676 25.4957 12.2477 25.6717L12.8863 25.9702L12.8634 26.2534L12.8406 26.5366L11.153 27.103L9.4652 27.6694L9.3132 28.1362C9.22952 28.3965 8.87984 29.5828 8.54536 30.7845C7.92194 32.9658 7.73189 33.5169 7.82312 32.8663C7.86113 32.5448 7.84592 32.5142 7.4582 32.0856C5.03306 29.4527 3.53539 26.3682 2.95001 22.7862C2.72954 21.4774 2.75235 18.6761 2.98802 17.3902C3.64942 13.7777 5.10908 10.831 7.49622 8.31285C11.3886 4.21806 16.8395 2.33522 22.4653 3.15418ZM12.1793 27.8913C11.6319 29.0318 10.6588 31.7642 10.7424 31.9096C10.7804 31.9785 11.1074 32.2922 11.4722 32.6137C11.8447 32.9352 12.1565 33.2337 12.1717 33.2873C12.1945 33.3408 12.0804 33.5092 11.9208 33.6699C11.7535 33.846 11.6927 33.8842 11.7687 33.7694C12.0652 33.3026 12.088 33.3638 11.3202 32.652C10.8032 32.1698 10.598 31.9326 10.598 31.8024C10.598 31.4044 12.1032 27.5698 12.2629 27.5698C12.3009 27.5698 12.2629 27.7153 12.1793 27.8913Z" fill="#333333"/>
</svg>
